<svg width="28" height="30" viewBox="0 0 25 26" fill="none" xmlns="http://www.w3.org/2000/svg">
<path d="M5.22448 25.5C5.0243 25.5 4.83231 25.4194 4.69076 25.2759C4.54921 25.1324 4.46969 24.9378 4.46969 24.7348C4.46969 24.5319 4.54921 24.3373 4.69076 24.1938C4.83231 24.0503 5.0243 23.9697 5.22448 23.9697H7.7762V23.2263C7.7762 21.7875 9.00536 20.6165 10.5163 20.6165H11.7454V17.415C10.1118 17.2554 8.56549 16.5929 7.31411 15.5165C6.06274 14.4401 5.16621 13.0013 4.74488 11.3934C3.58155 11.2718 2.50389 10.7176 1.71996 9.83787C0.936024 8.95811 0.501403 7.81513 0.5 6.62959C0.501027 5.7155 0.859722 4.83917 1.49738 4.19286C2.13504 3.54655 2.99958 3.18307 3.90129 3.18217H4.55617C4.72793 2.42111 5.1491 1.74154 5.75095 1.2544C6.35279 0.767265 7.09977 0.501321 7.86992 0.5H17.1307C17.9007 0.50137 18.6476 0.767331 19.2492 1.25448C19.8509 1.74163 20.2719 2.42119 20.4434 3.18217H21.0992C22.0008 3.18327 22.8652 3.54681 23.5027 4.19309C24.1403 4.83937 24.4989 5.71561 24.5 6.62959C24.4986 7.81512 24.064 8.9581 23.2801 9.83787C22.4962 10.7176 21.4186 11.2718 20.2552 11.3934C19.8338 13.0012 18.9372 14.44 17.6859 15.5163C16.4345 16.5927 14.8883 17.2552 13.2547 17.415V20.6165H14.4855C15.9959 20.6165 17.225 21.7876 17.225 23.2263V23.9697H19.7772C19.9774 23.9697 20.1694 24.0503 20.3109 24.1938C20.4525 24.3373 20.532 24.5319 20.532 24.7348C20.532 24.9378 20.4525 25.1324 20.3109 25.2759C20.1694 25.4194 19.9774 25.5 19.7772 25.5H5.22448ZM9.28663 23.2258V23.9692H15.7148V23.2258C15.7148 22.6407 15.1521 22.1466 14.4853 22.1466H10.5167C9.84979 22.1469 9.28663 22.641 9.28663 23.2261V23.2258ZM5.97938 3.947V9.31134C5.97938 11.0646 6.66644 12.7461 7.88943 13.9859C9.11241 15.2256 10.7711 15.9221 12.5007 15.9221C14.2302 15.9221 15.889 15.2256 17.1119 13.9859C18.3349 12.7461 19.022 11.0646 19.022 9.31134V3.947C19.0214 3.4388 18.822 2.95155 18.4676 2.59218C18.1131 2.23281 17.6325 2.03067 17.1311 2.03008H7.87055C7.3691 2.03053 6.88832 2.23267 6.53375 2.59213C6.17917 2.95158 5.9798 3.43898 5.97938 3.94731V3.947ZM20.532 9.51792C20.5317 9.57318 20.5255 9.62825 20.5133 9.68212C20.5119 9.72145 20.5099 9.76022 20.5078 9.79901C21.2134 9.63139 21.8426 9.22715 22.2933 8.6518C22.744 8.07644 22.9899 7.36365 22.9912 6.62894C22.9905 6.12074 22.7911 5.63356 22.4366 5.27422C22.0821 4.91488 21.6015 4.71274 21.1002 4.71215H20.532V9.51792ZM2.01042 6.62928C2.01166 7.36399 2.25756 8.07675 2.70829 8.65211C3.15901 9.22746 3.78816 9.63168 4.4938 9.79932C4.49171 9.76053 4.48972 9.72133 4.48825 9.68244C4.4762 9.62855 4.46998 9.57348 4.46969 9.51823V4.71256H3.90192C3.40054 4.71304 2.9198 4.9151 2.5652 5.27443C2.2106 5.63375 2.01109 6.12102 2.01042 6.62928Z" fill="white"/>
</svg>
